<svg xmlns="http://www.w3.org/2000/svg" xmlns:xlink="http://www.w3.org/1999/xlink" width="799.332" height="92.208" viewBox="0 0 799.332 92.208">
  <defs>
    <clipPath id="clip-path">
      <rect id="Rectangle_12" data-name="Rectangle 12" width="472.075" height="91.976" fill="none"/>
    </clipPath>
  </defs>
  <g id="Group_19" data-name="Group 19" transform="translate(-509.5 -100.5)">
    <g id="Group_12" data-name="Group 12" transform="translate(509.5 100.5)">
      <rect id="Rectangle_10" data-name="Rectangle 10" width="30.097" height="91.97" transform="translate(219.672 0.005)" fill="#d91eba"/>
      <g id="Group_5" data-name="Group 5" transform="translate(0 0)">
        <g id="Group_4" data-name="Group 4" clip-path="url(#clip-path)">
          <path id="Path_12" data-name="Path 12" d="M49.7,0h48c15.512,0,26.243,3.68,33.062,9.984,5.944,5.255,8.991,12.352,8.991,21.42v.262c0,14.055-8.271,23.386-20.885,28.25l24.22,32.058H110.609L90.162,64.117H77.841V91.976H49.7ZM96.4,44.148c9.568,0,15.074-4.2,15.074-10.906V32.98c0-7.226-5.8-10.906-15.224-10.906H77.841V44.148Z" transform="translate(206.104 0.002)" fill="#d91eba"/>
          <path id="Path_13" data-name="Path 13" d="M106.072,0H133.19L176.4,91.975H146.242l-7.4-16.3H99.69l-7.246,16.3H62.861Zm24.652,55.97-11.312-25.96-11.456,25.96Z" transform="translate(260.662 -0.003)" fill="#1bf2f2"/>
          <rect id="Rectangle_11" data-name="Rectangle 11" width="28.276" height="91.976" transform="translate(443.8)" fill="#16dcf2"/>
          <path id="Path_14" data-name="Path 14" d="M68.658,45.713H37.969L7.336,0H38.025Z" transform="translate(30.419 0.002)" fill="#1bf2f2"/>
          <path id="Path_15" data-name="Path 15" d="M38.025,55.145H7.336L37.968,8.882H68.658Z" transform="translate(30.418 36.831)" fill="#16dcf2"/>
          <path id="Path_16" data-name="Path 16" d="M14.671,0,45.3,45.712H75.993L45.36,0Z" transform="translate(60.834 0.002)" fill="#1bf2f2"/>
          <path id="Path_17" data-name="Path 17" d="M14.671,55.145,45.3,8.882H75.993L45.36,55.145" transform="translate(60.834 36.831)" fill="#16dcf2"/>
          <path id="Path_18" data-name="Path 18" d="M0,0,30.633,45.712H61.322L30.689,0" transform="translate(0 0.002)" fill="#1bf2f2"/>
          <path id="Path_19" data-name="Path 19" d="M0,55.145,30.633,8.882H61.322L30.689,55.145" transform="translate(0 36.831)" fill="#16dcf2"/>
          <path id="Path_20" data-name="Path 20" d="M94.5,0H91.848L72.389,29.032,52.934,0H22L72.389,75.187,94.5,42.2V91.976h28.276V0Z" transform="translate(91.238 0.002)" fill="#d91eba"/>
        </g>
      </g>
    </g>
    <path id="Path_41" data-name="Path 41" d="M20.574-52.488H.972v-4.86h44.55v4.86H25.92V0H20.574Zm21.3,33.777a20.87,20.87,0,0,1,1.458-7.9,18.86,18.86,0,0,1,4.05-6.237,18.026,18.026,0,0,1,6.237-4.09,21.18,21.18,0,0,1,7.938-1.458,20.87,20.87,0,0,1,7.9,1.458,18.545,18.545,0,0,1,6.237,4.09,18.546,18.546,0,0,1,4.09,6.237,20.87,20.87,0,0,1,1.458,7.9,20.87,20.87,0,0,1-1.458,7.9,18.546,18.546,0,0,1-4.09,6.237,18.545,18.545,0,0,1-6.237,4.09A20.87,20.87,0,0,1,61.56.972,21.18,21.18,0,0,1,53.622-.486a18.026,18.026,0,0,1-6.237-4.09,18.86,18.86,0,0,1-4.05-6.237A20.87,20.87,0,0,1,41.877-18.711Zm4.86,0a17.342,17.342,0,0,0,1.012,5.954A13.919,13.919,0,0,0,50.706-7.9a14.281,14.281,0,0,0,4.7,3.28A15.092,15.092,0,0,0,61.56-3.4a15.092,15.092,0,0,0,6.156-1.215,14.281,14.281,0,0,0,4.7-3.28,13.919,13.919,0,0,0,2.956-4.86,17.343,17.343,0,0,0,1.012-5.954,17.343,17.343,0,0,0-1.012-5.954,13.919,13.919,0,0,0-2.956-4.86,14.281,14.281,0,0,0-4.7-3.281A15.092,15.092,0,0,0,61.56-34.02,15.092,15.092,0,0,0,55.4-32.805a14.281,14.281,0,0,0-4.7,3.281,13.919,13.919,0,0,0-2.957,4.86A17.342,17.342,0,0,0,46.737-18.711Zm43.254,0a20.87,20.87,0,0,1,1.458-7.9,18.86,18.86,0,0,1,4.05-6.237,18.026,18.026,0,0,1,6.237-4.09,21.18,21.18,0,0,1,7.938-1.458,20.87,20.87,0,0,1,7.9,1.458,18.545,18.545,0,0,1,6.237,4.09,18.546,18.546,0,0,1,4.09,6.237,20.87,20.87,0,0,1,1.458,7.9,20.87,20.87,0,0,1-1.458,7.9,18.546,18.546,0,0,1-4.09,6.237,18.545,18.545,0,0,1-6.237,4.09,20.87,20.87,0,0,1-7.9,1.458,21.18,21.18,0,0,1-7.938-1.458A18.026,18.026,0,0,1,95.5-4.576a18.86,18.86,0,0,1-4.05-6.237A20.87,20.87,0,0,1,89.991-18.711Zm4.86,0a17.343,17.343,0,0,0,1.012,5.954A13.919,13.919,0,0,0,98.82-7.9a14.281,14.281,0,0,0,4.7,3.28A15.092,15.092,0,0,0,109.674-3.4a15.092,15.092,0,0,0,6.156-1.215,14.281,14.281,0,0,0,4.7-3.28,13.919,13.919,0,0,0,2.956-4.86,17.343,17.343,0,0,0,1.012-5.954,17.343,17.343,0,0,0-1.012-5.954,13.919,13.919,0,0,0-2.956-4.86,14.281,14.281,0,0,0-4.7-3.281,15.092,15.092,0,0,0-6.156-1.215,15.092,15.092,0,0,0-6.156,1.215,14.281,14.281,0,0,0-4.7,3.281,13.919,13.919,0,0,0-2.957,4.86A17.343,17.343,0,0,0,94.851-18.711Zm46.17-42.525h4.86V0h-4.86Zm17.658,0h4.86v30.375h.162a12.606,12.606,0,0,1,2.835-3.361,17.057,17.057,0,0,1,3.686-2.349,18.445,18.445,0,0,1,4.172-1.377,21.473,21.473,0,0,1,4.293-.446,20.87,20.87,0,0,1,7.9,1.458,18.545,18.545,0,0,1,6.237,4.09,18.545,18.545,0,0,1,4.09,6.237,20.87,20.87,0,0,1,1.458,7.9,20.87,20.87,0,0,1-1.458,7.9,18.545,18.545,0,0,1-4.09,6.237,18.545,18.545,0,0,1-6.237,4.09,20.87,20.87,0,0,1-7.9,1.458,21.473,21.473,0,0,1-4.293-.446A18.444,18.444,0,0,1,170.221-.85,17.058,17.058,0,0,1,166.536-3.2,12.606,12.606,0,0,1,163.7-6.561h-.162V0h-4.86Zm4.374,42.525a14.769,14.769,0,0,0,1.215,5.954,15.247,15.247,0,0,0,3.321,4.86,15.956,15.956,0,0,0,4.941,3.28A15.462,15.462,0,0,0,178.686-3.4a15.092,15.092,0,0,0,6.156-1.215,14.281,14.281,0,0,0,4.7-3.28,13.919,13.919,0,0,0,2.956-4.86,17.342,17.342,0,0,0,1.013-5.954,17.342,17.342,0,0,0-1.013-5.954,13.919,13.919,0,0,0-2.956-4.86,14.281,14.281,0,0,0-4.7-3.281,15.092,15.092,0,0,0-6.156-1.215,15.462,15.462,0,0,0-6.156,1.215,15.956,15.956,0,0,0-4.941,3.281,15.247,15.247,0,0,0-3.321,4.86A14.769,14.769,0,0,0,163.053-18.711Zm44.064,0a20.87,20.87,0,0,1,1.458-7.9,18.86,18.86,0,0,1,4.05-6.237,18.026,18.026,0,0,1,6.237-4.09,21.18,21.18,0,0,1,7.938-1.458,20.87,20.87,0,0,1,7.9,1.458,18.545,18.545,0,0,1,6.237,4.09,18.545,18.545,0,0,1,4.09,6.237,20.87,20.87,0,0,1,1.458,7.9,20.87,20.87,0,0,1-1.458,7.9,18.545,18.545,0,0,1-4.09,6.237A18.545,18.545,0,0,1,234.7-.486,20.87,20.87,0,0,1,226.8.972a21.18,21.18,0,0,1-7.938-1.458,18.026,18.026,0,0,1-6.237-4.09,18.86,18.86,0,0,1-4.05-6.237A20.87,20.87,0,0,1,207.117-18.711Zm4.86,0a17.342,17.342,0,0,0,1.013,5.954,13.919,13.919,0,0,0,2.956,4.86,14.281,14.281,0,0,0,4.7,3.28A15.092,15.092,0,0,0,226.8-3.4a15.092,15.092,0,0,0,6.156-1.215,14.281,14.281,0,0,0,4.7-3.28,13.919,13.919,0,0,0,2.957-4.86,17.343,17.343,0,0,0,1.012-5.954,17.343,17.343,0,0,0-1.012-5.954,13.919,13.919,0,0,0-2.957-4.86,14.281,14.281,0,0,0-4.7-3.281A15.092,15.092,0,0,0,226.8-34.02a15.092,15.092,0,0,0-6.156,1.215,14.281,14.281,0,0,0-4.7,3.281,13.919,13.919,0,0,0-2.956,4.86A17.342,17.342,0,0,0,211.977-18.711Zm54.918-1.539L253.53-37.422h6.237l10.368,14.175,10.287-14.175H286.5l-13.2,17.172L289.332,0h-6.318L269.973-16.929,257.175,0h-5.832Z" transform="translate(1019.5 191.736)" fill="#13dcf2"/>
  </g>
</svg>
