<svg xmlns="http://www.w3.org/2000/svg" xmlns:xlink="http://www.w3.org/1999/xlink" width="195.44" height="22.36" viewBox="0 0 195.44 22.36">
  <defs>
    <clipPath id="clip-path">
      <rect id="Rectangle_12" data-name="Rectangle 12" width="114.442" height="22.297" fill="none"/>
    </clipPath>
  </defs>
  <g id="Group_18" data-name="Group 18" transform="translate(-63 -13)">
    <g id="Group_6" data-name="Group 6" transform="translate(63 13)">
      <rect id="Rectangle_10" data-name="Rectangle 10" width="7.296" height="22.296" transform="translate(53.254 0.001)" fill="#d91eba"/>
      <g id="Group_5" data-name="Group 5" transform="translate(0 0)">
        <g id="Group_4" data-name="Group 4" clip-path="url(#clip-path)">
          <path id="Path_12" data-name="Path 12" d="M49.7,0H61.341C65.1,0,67.7.892,69.356,2.42a6.576,6.576,0,0,1,2.18,5.193v.064c0,3.407-2,5.669-5.063,6.848L72.344,22.3H64.469l-4.957-6.754H56.525V22.3H49.7ZM61.025,10.7c2.319,0,3.654-1.019,3.654-2.644V8c0-1.752-1.406-2.644-3.691-2.644H56.525V10.7Z" transform="translate(12.31 0)" fill="#d91eba"/>
          <path id="Path_13" data-name="Path 13" d="M73.336,0H79.91L90.386,22.3H83.074l-1.793-3.953H71.789L70.033,22.3H62.861Zm5.976,13.568L76.57,7.274l-2.777,6.293Z" transform="translate(15.569 0)" fill="#1bf2f2"/>
          <rect id="Rectangle_11" data-name="Rectangle 11" width="6.855" height="22.297" transform="translate(107.588)" fill="#16dcf2"/>
          <path id="Path_14" data-name="Path 14" d="M22.2,11.082h-7.44L7.336,0h7.44Z" transform="translate(1.817 0)" fill="#1bf2f2"/>
          <path id="Path_15" data-name="Path 15" d="M14.775,20.1H7.336L14.762,8.882H22.2Z" transform="translate(1.817 2.2)" fill="#16dcf2"/>
          <path id="Path_16" data-name="Path 16" d="M14.671,0,22.1,11.082h7.44L22.11,0Z" transform="translate(3.633 0)" fill="#1bf2f2"/>
          <path id="Path_17" data-name="Path 17" d="M14.671,20.1,22.1,8.882h7.44L22.11,20.1" transform="translate(3.633 2.2)" fill="#16dcf2"/>
          <path id="Path_18" data-name="Path 18" d="M0,0,7.426,11.082h7.44L7.44,0" transform="translate(0 0)" fill="#1bf2f2"/>
          <path id="Path_19" data-name="Path 19" d="M0,20.1,7.426,8.882h7.44L7.44,20.1" transform="translate(0 2.2)" fill="#16dcf2"/>
          <path id="Path_20" data-name="Path 20" d="M39.578,0h-.643L34.218,7.038,29.5,0H22L34.218,18.227l5.36-8V22.3h6.855V0Z" transform="translate(5.449 0)" fill="#d91eba"/>
        </g>
      </g>
    </g>
    <path id="Path_40" data-name="Path 40" d="M5.08-12.96H.24v-1.2h11v1.2H6.4V0H5.08Zm5.26,8.34a5.153,5.153,0,0,1,.36-1.95,4.657,4.657,0,0,1,1-1.54,4.451,4.451,0,0,1,1.54-1.01,5.23,5.23,0,0,1,1.96-.36,5.153,5.153,0,0,1,1.95.36,4.579,4.579,0,0,1,1.54,1.01A4.579,4.579,0,0,1,19.7-6.57a5.153,5.153,0,0,1,.36,1.95,5.153,5.153,0,0,1-.36,1.95,4.579,4.579,0,0,1-1.01,1.54A4.579,4.579,0,0,1,17.15-.12,5.153,5.153,0,0,1,15.2.24a5.23,5.23,0,0,1-1.96-.36A4.451,4.451,0,0,1,11.7-1.13a4.657,4.657,0,0,1-1-1.54A5.153,5.153,0,0,1,10.34-4.62Zm1.2,0a4.282,4.282,0,0,0,.25,1.47,3.437,3.437,0,0,0,.73,1.2,3.526,3.526,0,0,0,1.16.81,3.726,3.726,0,0,0,1.52.3,3.726,3.726,0,0,0,1.52-.3,3.526,3.526,0,0,0,1.16-.81,3.437,3.437,0,0,0,.73-1.2,4.282,4.282,0,0,0,.25-1.47,4.282,4.282,0,0,0-.25-1.47,3.437,3.437,0,0,0-.73-1.2,3.526,3.526,0,0,0-1.16-.81,3.726,3.726,0,0,0-1.52-.3,3.726,3.726,0,0,0-1.52.3,3.526,3.526,0,0,0-1.16.81,3.437,3.437,0,0,0-.73,1.2A4.282,4.282,0,0,0,11.54-4.62Zm10.68,0a5.153,5.153,0,0,1,.36-1.95,4.657,4.657,0,0,1,1-1.54,4.451,4.451,0,0,1,1.54-1.01,5.23,5.23,0,0,1,1.96-.36,5.153,5.153,0,0,1,1.95.36,4.579,4.579,0,0,1,1.54,1.01,4.579,4.579,0,0,1,1.01,1.54,5.153,5.153,0,0,1,.36,1.95,5.153,5.153,0,0,1-.36,1.95,4.579,4.579,0,0,1-1.01,1.54A4.579,4.579,0,0,1,29.03-.12a5.153,5.153,0,0,1-1.95.36,5.23,5.23,0,0,1-1.96-.36,4.451,4.451,0,0,1-1.54-1.01,4.657,4.657,0,0,1-1-1.54A5.153,5.153,0,0,1,22.22-4.62Zm1.2,0a4.282,4.282,0,0,0,.25,1.47,3.437,3.437,0,0,0,.73,1.2,3.526,3.526,0,0,0,1.16.81,3.726,3.726,0,0,0,1.52.3,3.726,3.726,0,0,0,1.52-.3,3.526,3.526,0,0,0,1.16-.81,3.437,3.437,0,0,0,.73-1.2,4.282,4.282,0,0,0,.25-1.47,4.282,4.282,0,0,0-.25-1.47,3.437,3.437,0,0,0-.73-1.2A3.526,3.526,0,0,0,28.6-8.1a3.726,3.726,0,0,0-1.52-.3,3.726,3.726,0,0,0-1.52.3,3.526,3.526,0,0,0-1.16.81,3.437,3.437,0,0,0-.73,1.2A4.282,4.282,0,0,0,23.42-4.62Zm11.4-10.5h1.2V0h-1.2Zm4.36,0h1.2v7.5h.04a3.113,3.113,0,0,1,.7-.83,4.212,4.212,0,0,1,.91-.58,4.554,4.554,0,0,1,1.03-.34,5.3,5.3,0,0,1,1.06-.11,5.153,5.153,0,0,1,1.95.36,4.579,4.579,0,0,1,1.54,1.01,4.579,4.579,0,0,1,1.01,1.54,5.153,5.153,0,0,1,.36,1.95,5.153,5.153,0,0,1-.36,1.95,4.579,4.579,0,0,1-1.01,1.54A4.579,4.579,0,0,1,46.07-.12a5.153,5.153,0,0,1-1.95.36A5.3,5.3,0,0,1,43.06.13a4.554,4.554,0,0,1-1.03-.34,4.212,4.212,0,0,1-.91-.58,3.113,3.113,0,0,1-.7-.83h-.04V0h-1.2Zm1.08,10.5a3.647,3.647,0,0,0,.3,1.47,3.765,3.765,0,0,0,.82,1.2,3.94,3.94,0,0,0,1.22.81,3.818,3.818,0,0,0,1.52.3,3.726,3.726,0,0,0,1.52-.3,3.526,3.526,0,0,0,1.16-.81,3.437,3.437,0,0,0,.73-1.2,4.282,4.282,0,0,0,.25-1.47,4.282,4.282,0,0,0-.25-1.47,3.437,3.437,0,0,0-.73-1.2,3.526,3.526,0,0,0-1.16-.81,3.726,3.726,0,0,0-1.52-.3,3.818,3.818,0,0,0-1.52.3,3.94,3.94,0,0,0-1.22.81,3.765,3.765,0,0,0-.82,1.2A3.647,3.647,0,0,0,40.26-4.62Zm10.88,0a5.153,5.153,0,0,1,.36-1.95,4.657,4.657,0,0,1,1-1.54,4.451,4.451,0,0,1,1.54-1.01A5.23,5.23,0,0,1,56-9.48a5.153,5.153,0,0,1,1.95.36,4.579,4.579,0,0,1,1.54,1.01A4.579,4.579,0,0,1,60.5-6.57a5.153,5.153,0,0,1,.36,1.95,5.153,5.153,0,0,1-.36,1.95,4.579,4.579,0,0,1-1.01,1.54A4.579,4.579,0,0,1,57.95-.12,5.153,5.153,0,0,1,56,.24a5.23,5.23,0,0,1-1.96-.36A4.451,4.451,0,0,1,52.5-1.13a4.657,4.657,0,0,1-1-1.54A5.153,5.153,0,0,1,51.14-4.62Zm1.2,0a4.282,4.282,0,0,0,.25,1.47,3.437,3.437,0,0,0,.73,1.2,3.526,3.526,0,0,0,1.16.81A3.726,3.726,0,0,0,56-.84a3.726,3.726,0,0,0,1.52-.3,3.526,3.526,0,0,0,1.16-.81,3.437,3.437,0,0,0,.73-1.2,4.282,4.282,0,0,0,.25-1.47,4.282,4.282,0,0,0-.25-1.47,3.437,3.437,0,0,0-.73-1.2,3.526,3.526,0,0,0-1.16-.81A3.726,3.726,0,0,0,56-8.4a3.726,3.726,0,0,0-1.52.3,3.526,3.526,0,0,0-1.16.81,3.437,3.437,0,0,0-.73,1.2A4.282,4.282,0,0,0,52.34-4.62ZM65.9-5,62.6-9.24h1.54l2.56,3.5,2.54-3.5h1.5L67.48-5l3.96,5H69.88L66.66-4.18,63.5,0H62.06Z" transform="translate(187 35.12)" fill="#13dcf2"/>
  </g>
</svg>
